<svg xmlns="http://www.w3.org/2000/svg" viewBox="0 0 512 512">
  <!-- Sfondo -->
  <rect width="512" height="512" rx="112" fill="#0F172A"/>
  <!-- Gradient definizioni -->
  <defs>
    <linearGradient id="g" x1="0%" y1="0%" x2="100%" y2="100%">
      <stop offset="0%" stop-color="#1D4ED8"/>
      <stop offset="100%" stop-color="#3B82F6"/>
    </linearGradient>
  </defs>
  <!-- Corpo auto -->
  <path d="M96 300 L130 220 Q155 180 210 175 L302 175 Q357 175 382 220 L416 300 L416 355 Q416 370 400 370 L370 370 L370 355 Q370 335 350 335 L162 335 Q142 335 142 355 L142 370 L112 370 Q96 370 96 355 Z" fill="url(#g)"/>
  <!-- Tetto -->
  <path d="M185 175 L210 120 Q228 100 256 100 Q284 100 302 120 L327 175 Z" fill="#2563EB"/>
  <!-- Finestrino sinistro -->
  <path d="M193 170 L213 123 Q224 108 244 108 L244 170 Z" fill="#93C5FD" opacity="0.7"/>
  <!-- Finestrino destro -->
  <path d="M268 170 L268 108 Q286 108 299 123 L319 170 Z" fill="#93C5FD" opacity="0.7"/>
  <!-- Ruota sinistra -->
  <circle cx="165" cy="355" r="48" fill="#1E293B" stroke="#475569" stroke-width="6"/>
  <circle cx="165" cy="355" r="24" fill="#334155"/>
  <circle cx="165" cy="355" r="10" fill="#60A5FA"/>
  <!-- Ruota destra -->
  <circle cx="347" cy="355" r="48" fill="#1E293B" stroke="#475569" stroke-width="6"/>
  <circle cx="347" cy="355" r="24" fill="#334155"/>
  <circle cx="347" cy="355" r="10" fill="#60A5FA"/>
  <!-- Fari anteriori -->
  <rect x="96" y="270" width="36" height="18" rx="9" fill="#FDE68A" opacity="0.9"/>
  <!-- Fari posteriori -->
  <rect x="380" y="270" width="36" height="18" rx="9" fill="#FCA5A5" opacity="0.9"/>
</svg>
